# xmcd CD database file
#
# Track frame offsets:
#	150
#	34116
#	58743
#	78916
#	109817
#	133805
#	158499
#	192245
#	220544
#	246946
#
# Disc length: 3547 seconds
#
# Revision: 0
# Processed by: cddbd v1.5.1PL2 Copyright (c) Steve Scherf et al.
# Submitted via: CDex 1.51
#
DISCID=820dd90a
DTITLE=Jonathan Lorentz - Coming Home
DYEAR=2005
DGENRE=Jazz
TTITLE0=Softly, As In A Morning Sunrise
TTITLE1=I Love You
TTITLE2=Hangin'
TTITLE3=Stoic
TTITLE4=I'll Remember April
TTITLE5=Like Someone In Love
TTITLE6=Good Bait
TTITLE7=What Is This Thing Called Love?
TTITLE8=Recess
TTITLE9=Coming Home
EXTD=YEAR: 2005
EXTT0=
EXTT1=
EXTT2=
EXTT3=
EXTT4=
EXTT5=
EXTT6=
EXTT7=
EXTT8=
EXTT9=
PLAYORDER=
